<?xml version="1.0" encoding="UTF-8" standalone="no"?>
<!DOCTYPE svg PUBLIC "-//W3C//DTD SVG 1.1//EN" "http://www.w3.org/Graphics/SVG/1.1/DTD/svg11.dtd">
<!-- Created with Vectornator (http://vectornator.io/) -->
<svg height="100%" stroke-miterlimit="10" style="fill-rule:nonzero;clip-rule:evenodd;stroke-linecap:round;stroke-linejoin:round;" version="1.1" viewBox="0 0 419.58 297.675" width="100%" xml:space="preserve" xmlns="http://www.w3.org/2000/svg" xmlns:xlink="http://www.w3.org/1999/xlink">
<defs/>
<g>
<path d="M188.255 70.0543C199.76 69.3599 214.816 107.863 222.396 110.945C231.638 114.703 280.627 105.667 287.604 118.111C293.679 128.946 258.669 154.303 256.303 163.925C252.971 177.472 279.193 213.426 269.576 222.002C258.991 231.44 216.736 199.439 207.281 198.407C198.498 197.448 156.705 236.829 145.716 229.179C138.599 224.225 150.503 182.931 147.099 173.627C143.571 163.985 100.204 145.178 102.83 130.469C104.716 119.901 152.508 114.961 157.478 110.954C163.636 105.99 175.915 70.799 188.255 70.0543Z" fill="#f1d244" fill-rule="nonzero" opacity="1" stroke="#f1d244" stroke-linecap="round" stroke-linejoin="round" stroke-width="5"/>
</g>
</svg>
